<svg xmlns="http://www.w3.org/2000/svg" viewBox="0 0 612.93 354.4"><defs><style>.cls-1{fill:#e19ec6;}.cls-2{fill:#ec008c;}.cls-3{fill:#dd65a6;}</style></defs><title>Asset 1</title><g id="Layer_2" data-name="Layer 2"><g id="Layer_1-2" data-name="Layer 1"><path class="cls-1" d="M415,343c-40.41,0-77.9-15.42-105.56-43.41l-1.9-1.92-2.56-.87c-2.8-.95-5.71-2-8.65-3.25l-2.09-.86H211.54l-.44,0c-3.06.24-6.17.35-9.24.35s-6.17-.12-9.24-.35l-.44,0H80.05a68.61,68.61,0,0,1-4.18-137.1l8.48-.51,2-8.27A119.3,119.3,0,0,1,127.7,81.52a117.45,117.45,0,0,1,74.17-26A119,119,0,0,1,234.45,60l6.65,1.89,4.77-5A146.54,146.54,0,0,1,475.55,79.19l1.75,2.74,2.93,1.41c48.31,23.21,78.72,69.48,79.37,120.77l.08,6.7,5.89,3.2a68.63,68.63,0,0,1-32.7,129Z"/><path class="cls-2" d="M352,22.87A135,135,0,0,1,465.91,85.35l3.5,5.48,5.87,2.82a131.33,131.33,0,0,1,52.44,45.17,120.29,120.29,0,0,1,20.44,65.44l.17,13.41,11.78,6.4a57.19,57.19,0,0,1-27.24,107.47H415a138.84,138.84,0,0,1-54.12-10.81,133,133,0,0,1-43.31-29.2l-3.8-3.85-5.13-1.74c-2.57-.87-5.25-1.88-8-3l-4.18-1.72H211.1l-.87.07c-2.77.21-5.58.32-8.36.32s-5.59-.11-8.36-.32l-.87-.07H80A57.18,57.18,0,0,1,76.55,167l17-1,3.92-16.54a107.81,107.81,0,0,1,37.41-59,106.13,106.13,0,0,1,67-23.5A107.57,107.57,0,0,1,231.32,71l13.29,3.78,9.53-10A134.63,134.63,0,0,1,352,22.87M352,0a157.5,157.5,0,0,0-114.4,49,130.35,130.35,0,0,0-162.4,95.1A80,80,0,0,0,80,304.09H191.76q5,.38,10.11.39t10.11-.39h80c3.07,1.26,6.17,2.44,9.33,3.51,28.47,28.81,68.87,46.81,113.7,46.81H532.88A80.06,80.06,0,0,0,571,204C570.31,146.71,535.59,97.25,485.19,73A157.83,157.83,0,0,0,352,0Z"/><path class="cls-3" d="M177.64,229.12c11.35,12.38,26,23,42.63,26.81,16.11,3.66,34.16,1.16,47.53-9,16-12.14,21-30.91,22.66-50.13a94.11,94.11,0,0,0-10.94-53.1c-3.9-7.17-9.43-15.19-11.28-21.44-.27-.91-.44-1.85-.71-2.76-.79-2.72-.09.76-.19-.9,0-.71-.1-1.42-.11-2.13,0-.38.15-4.18,0-2.18-.16,1.74,1.36-4.35.68-2.77s.27-.46.41-.61c3-3.35-2.22,2.08,1-1.17a15.25,15.25,0,1,0-21.56-21.56c-11.46,11.46-13.54,29.3-8.26,44.21,2.8,7.92,7,15.07,11.17,22.29,4.09,7,6.35,11.51,8.14,19.22,1.52,6.53,1.79,12.52,1.34,20.29-.38,6.56-1.11,13.23-4.1,20.43.54-1.3-1.08,2-1.35,2.45a27.09,27.09,0,0,1-1.84,2.83c.2-.26,1.27-1.53.11-.31-.49.51-1,1-1.49,1.54-.06.07-1.81,1.67-.62.66s-.61.45-.73.52c-1,.64-2,1.28-3.05,1.85-.63.34-1.27.66-1.91,1,.27-.13,2-.75.32-.15-1.37.49-2.74.92-4.15,1.28-.83.21-5.08.86-2.39.6a47.25,47.25,0,0,1-5.1.22c-.73,0-1.46-.05-2.19-.07-4.43-.13,1.47.39-1-.05a51.14,51.14,0,0,1-5.37-1.25,29,29,0,0,1-8.77-3.78q-2.79-1.58-5.42-3.41c-.66-.46-1.32-.92-2-1.4,1.23.94-.36-.32-.7-.61a113.91,113.91,0,0,1-9.24-9c-5.57-6.07-15.92-5.64-21.56,0-6,6-5.58,15.47,0,21.56Z"/><path class="cls-3" d="M283.93,154.68c-1.58-2.59-.57-.9-.27-.3,1,2.07.06.27,0-1-.05-2.47-.47,2,0-.45.23-1.24.54-2.46.87-3.67a38.83,38.83,0,0,1,4.15-10.65c1-1.81,2.07-3.52,3.18-5.24,1.62-2.49.81-1.11.36-.57.64-.78,1.31-1.54,2-2.27.87-.92,1.79-1.77,2.71-2.63,1.81-1.71-1.57,1,.46-.44.82-.59,1.67-1.14,2.55-1.66.45-.27,4-2,2.45-1.35s.92-.24,1.33-.36c.85-.25,1.78-.36,2.61-.66,2.14-.78-3.33,0,.61-.12.9,0,1.78-.09,2.68-.08s1.78.1,2.67.13c-2.89-.11-.91-.18-.13.06s1.71.49,2.54.68c3.15.74-1.51-1.3,1.14.5.71.48,1.49.87,2.2,1.36-2.48-1.7-.48-.14-.08.1,2.7,1.56-.29-.83.69.65a25.25,25.25,0,0,1,1.47,2.52c1.09,2.13-.52-1.92.08.39.31,1.18.66,2.33.85,3.54-.13-.8-.07-2.53-.1.34,0,1.24,0,2.48-.09,3.72-.16,2.63,1-3.24-.19,1.15-.26,1-.45,2-.74,2.93s-.6,1.92-.95,2.86c.8-2.17,0,.08-.25.47-2.6,4.83-5.75,9.39-8.15,14.33a65.91,65.91,0,0,0-6.85,30.82c.61,20.31,9.64,39.91,24.1,54.09,16.24,15.93,38,25.34,60,29.86,7.79,1.6,16.84-2.25,18.76-10.65,1.73-7.61-2.29-17-10.65-18.76-20-4.09-36.78-10.86-49.83-25.43-.68-.76-1.37-1.55-2-2.35,1.76,2.19-1.2-1.75-1.22-1.79q-1.69-2.53-3.14-5.21c-.6-1.12-1.17-2.25-1.71-3.4-1.2-2.54,1.06,3.24-.53-1.27a74.81,74.81,0,0,1-2.22-7.25c-.35-1.47-.66-2.95-.9-4.44.11.68.2,2.66,0-.42a61.74,61.74,0,0,1-.13-7.46c.05-1,.12-2,.24-3-.3,2.63,0,.13.14-.35.31-1.2.54-2.41.88-3.61.15-.54,1.77-5.12.75-2.67,4.44-10.6,11.95-19,14.09-30.71,2.17-11.87,1-24.83-6.24-34.87-13.64-18.94-40.81-22.33-60.25-10.27-10.92,6.77-19.1,17.26-24.2,28.94-5.64,12.93-10.06,28.32-2.11,41.32a15.53,15.53,0,0,0,20.86,5.47c7-4.1,9.78-13.81,5.47-20.86Z"/><path class="cls-3" d="M340.84,170.29a75.66,75.66,0,0,1,8.78-9.25q1.2-1.05,2.44-2.06-1.47,1.14.74-.49c1.77-1.18,3.53-2.36,5.38-3.43s3.74-2,5.66-2.94q2.52-1.15.77-.33,1.48-.57,3-1.06a61.44,61.44,0,0,1,6.14-1.6q2.8-.5.66-.11,1.57-.13,3.14-.13t3.11.15q-2.26-.27.48.27,2.58.9.65.05a22.28,22.28,0,0,1,2.68,1.54c-2.94-2,2.82,3.37.6.5a24.52,24.52,0,0,1,2.87,5c-1.15-2.59.73,2.69.88,3.26s1.13,6.33.74,3.15a136.61,136.61,0,0,1,.61,14.48c.15,10.26,1,20.53,4.31,30.31,3.21,9.56,7.81,18.62,12.73,27.4,9.89,17.66,21.79,35.43,44.13,36.25,8,.29,15.61-7.22,15.25-15.25a15.56,15.56,0,0,0-15.25-15.25c-.18,0-2.49-.31-.94,0s-.79-.31-.88-.34c-2.41-.95.35.54-1.82-.94-2.46-1.68-1.15-.69-.61-.26-.59-.46-1.14-1-1.68-1.52s-3.26-3.54-2.36-2.4c-4.45-5.65-7.76-12.46-11.2-18.75-3.69-6.75-6.41-12-8.48-18.69-2.36-7.56-2.58-13.21-2.7-21.52-.24-16.22-2-32.27-12.95-45-11.27-13.12-30.14-15-45.93-10.6a85.12,85.12,0,0,0-42.49,28.08c-5.18,6.4-6.25,15.31,0,21.56,5.35,5.35,16.36,6.43,21.56,0Z"/><path class="cls-2" d="M80.53,166.59c9.11-1.26,18.41,4.62,23,12.17,6.28,10.43,3.93,20.58,3,32-1,12,4.65,24.67,17.32,27.39,11.71,2.51,26.48-2,35.53-9.5,4-3.29,3.4-10.08,0-13.48-3.92-3.92-9.5-3.3-13.48,0-3.4,2.81-9.24,3.85-13.5,4.39-3.65.46-6,.5-6.78-3.44-1.06-5.11.9-11,1.35-16.06a53.65,53.65,0,0,0-1.3-16.84c-5.4-23.14-26.68-38.24-50.17-35-5.1.71-7.89,7.23-6.66,11.72,1.51,5.5,6.6,7.37,11.72,6.66Z"/><path class="cls-2" d="M231.2,61.47c-8.29,27-40.11,24.31-60.71,36.08-5.68,3.25-11.1,7.57-13.6,13.79-2.77,6.9-1.31,14.5.26,21.53a100.43,100.43,0,0,0,17.48,37.86c3.07,4.12,8.24,6.22,13,3.42,4.06-2.37,6.51-8.89,3.42-13A87.31,87.31,0,0,1,175.35,127c-.91-4.25-2.37-8,1.41-10.88,4.55-3.5,10.24-5.46,15.65-7.12,11.63-3.58,23.9-5.92,34.38-12.42a53.47,53.47,0,0,0,22.78-30c3.6-11.75-14.79-16.78-18.38-5.07Z"/><path class="cls-2" d="M571.32,208.46C558.85,199.17,542.45,194.62,527,197c-16,2.46-25.25,14.78-29.54,29.52-4.14,14.22-5,29.24-9.39,43.4-3.56,11.55-13.1,20.11-25.77,16.87-11.89-3-17,15.33-5.07,18.38,13.92,3.57,29.71-.46,39.3-11.49,10.08-11.59,12.08-27.18,14.92-41.71,2-10.3,2.75-26.76,12-33.71,4.94-3.73,12.7-3.32,18.47-2.27a46.82,46.82,0,0,1,19.81,8.93c4.13,3.08,10.64.67,13-3.42,2.84-4.86.72-10-3.42-13Z"/><path class="cls-2" d="M489.72,80.33c-12.49-5.89-25.94-12.45-39.61-14.94-14.24-2.6-26.39,2-39.38,7.17-2.8,1.13-5.62,2.22-8.51,3.11-1.54.47-3.22.74-4.74,1.26-1.88.64-2.49-.12-.8,1-1.67-1.07-3.3-3.86-4.79-5.27a59.58,59.58,0,0,0-7.19-5.72A53.73,53.73,0,0,0,349.22,58c-5.12.55-9.53,4-9.53,9.53,0,4.73,4.38,10.08,9.53,9.53,10.05-1.08,20.31,1.31,28.08,8.06,4.37,3.8,7.3,8.95,13.17,10.72s13.46-.58,19.15-2.53c10.78-3.71,21.79-10.7,33.58-9.7,6.2.52,12.27,3,18,5.16,6.4,2.43,12.67,5.14,18.86,8.06,4.65,2.19,10.28,1.3,13-3.42,2.42-4.14,1.26-10.83-3.42-13Z"/></g></g></svg>